{"title":"The.Last.Ship.S02E09.HDTV.480p.x264.AAC-VYTO [P2PDL]","uid":12213704,"size":151824159,"categoryP":"video","categoryS":"hd___tv_shows","magnet":"?xt=urn:btih:bd5251f06ed0308a7f3ea4ee102a3b8948816351&amp;dn=The.Last.Ship.S02E09.HDTV.480p.x264.AAC-VYTO+%5BP2PDL%5D&amp;tr=udp%3A%2F%2Ftracker.openbittorrent.com%3A80&amp;tr=udp%3A%2F%2Fopen.demonii.com%3A1337&amp;tr=udp%3A%2F%2Ftracker.coppersurfer.tk%3A6969&amp;tr=udp%3A%2F%2Fexodus.desync.com%3A6969","seeders":4,"leechers":0,"uploader":"ValidusVyto","files":6,"time":1439187211,"description":"____    ____ ____    ____ .___________.  ______   \n     /   /      /   / |           | /  __    \n    /   /      /   /  `---|  |----`|  |  |  | \n        /     _    _/       |  |     |  |  |  | \n       /        |  |         |  |     |  `--'  | \n    __/         |__|         |__|      ______/  \n                                                  \nPresenting Small Encodes with quality for years!\n                                                                                                   \n                                                                                                   \n\nThe.Last.Ship.S02E09.HDTV.480p.x264.AAC-VYTO\n\n\nGeneral\nFormat                         : MPEG-4\nFile size                      : 141 MiB\nDuration                       : 42mn 15s\nOverall bit rate               : 465 Kbps\n\nVideo\nFormat                         : AVC\nBit rate                       : 414 Kbps\nWidth                          : 720 pixels\nHeight                         : 400 pixels\nDisplay aspect ratio           : 16:9\nFrame rate mode                : Constant\nFrame rate                     : 23.976 fps\nBit depth                      : 8 bits\nStream size                    : 125 MiB (89%)\nWriting library                : x264 core 148 r2579\n\nAudio\nFormat                         : AAC\nBit rate mode                  : Variable\nBit rate                       : 48.0 Kbps\nChannel(s)                     : 2 channels\nChannel positions              : Front: L R\nSampling rate                  : 48.0 KHz\nStream size                    : 14.5 MiB (10%)\n\n\nScreenshots:\n &lt;a href=&quot;\nhttp://ititli.com/km&quot; rel=&quot;nofollow&quot; target=&quot;_NEW&quot;&gt;\nhttp://ititli.com/km&lt;/a&gt; &lt;a href=&quot;\nhttp://ititli.com/kx&quot; rel=&quot;nofollow&quot; target=&quot;_NEW&quot;&gt;\nhttp://ititli.com/kx&lt;/a&gt; &lt;a href=&quot;\nhttp://ititli.com/k7&quot; rel=&quot;nofollow&quot; target=&quot;_NEW&quot;&gt;\nhttp://ititli.com/k7&lt;/a&gt; &lt;a href=&quot;\nhttp://ititli.com/kC&quot; rel=&quot;nofollow&quot; target=&quot;_NEW&quot;&gt;\nhttp://ititli.com/kC&lt;/a&gt; &lt;a href=&quot;\nhttp://ititli.com/kF&quot; rel=&quot;nofollow&quot; target=&quot;_NEW&quot;&gt;\nhttp://ititli.com/kF&lt;/a&gt; &lt;a href=&quot;\nhttp://ititli.com/kJ&quot; rel=&quot;nofollow&quot; target=&quot;_NEW&quot;&gt;\nhttp://ititli.com/kJ&lt;/a&gt; &lt;a href=&quot;\nhttp://ititli.com/k5&quot; rel=&quot;nofollow&quot; target=&quot;_NEW&quot;&gt;\nhttp://ititli.com/k5&lt;/a&gt; &lt;a href=&quot;\nhttp://ititli.com/kB&quot; rel=&quot;nofollow&quot; target=&quot;_NEW&quot;&gt;\nhttp://ititli.com/kB&lt;/a&gt; &lt;a href=&quot;\nhttp://ititli.com/kN&quot; rel=&quot;nofollow&quot; target=&quot;_NEW&quot;&gt;\nhttp://ititli.com/kN&lt;/a&gt; &lt;a href=&quot;\nhttp://ititli.com/kP&quot; rel=&quot;nofollow&quot; target=&quot;_NEW&quot;&gt;\nhttp://ititli.com/kP&lt;/a&gt; &lt;a href=&quot;\nhttp://ititli.com/kf&quot; rel=&quot;nofollow&quot; target=&quot;_NEW&quot;&gt;\nhttp://ititli.com/kf&lt;/a&gt; &lt;a href=&quot;\nhttp://ititli.com/ku&quot; rel=&quot;nofollow&quot; target=&quot;_NEW&quot;&gt;\nhttp://ititli.com/ku&lt;/a&gt;\n\n----------------------------------------------------------------------------------------------------\n\n\nEncoder Notes: Looking For Early Access To Anything You Can Provide DVDScr, R5, DVDR, BluRay, Direct\nAudio, Music Releases and Seedboxes. If You Got anything to offer please contact us.\n\nSupport us by donating BC - 1FgwdzPsd1y25Gea8wP1qni35uGCtmkRCD","torrent":{"xt":"urn:btih:bd5251f06ed0308a7f3ea4ee102a3b8948816351","amp;dn":"The.Last.Ship.S02E09.HDTV.480p.x264.AAC-VYTO+%5BP2PDL%5D","amp;tr":["udp%3A%2F%2Ftracker.openbittorrent.com%3A80","udp%3A%2F%2Fopen.demonii.com%3A1337","udp%3A%2F%2Ftracker.coppersurfer.tk%3A6969","udp%3A%2F%2Fexodus.desync.com%3A6969"],"infoHash":"bd5251f06ed0308a7f3ea4ee102a3b8948816351","infoHashBuffer":{"type":"Buffer","data":[189,82,81,240,110,208,48,138,127,62,164,238,16,42,59,137,72,129,99,81]},"announce":[],"urlList":[]}}